<svg data-v-fde0c5aa="" xmlns="http://www.w3.org/2000/svg" viewBox="0 0 300 300" class="font"><!----><defs data-v-fde0c5aa=""><!----></defs><rect data-v-fde0c5aa="" fill="#016fb9ff" x="0" y="0" width="300px" height="300px" class="logo-background-square"></rect><defs data-v-fde0c5aa=""><!----></defs><g data-v-fde0c5aa="" id="30b9959f-aad8-4e75-891e-25938ad5fd87" fill="#ffffff" transform="matrix(2.516586646168014,0,0,2.516586646168014,39.19469221622614,129.38915582388475)"><path d="M8.71 3.78L8.71 9.21L8.71 9.21Q8.71 11.10 7.56 12.13L7.56 12.13L7.56 12.13Q6.41 13.16 4.31 13.16L4.31 13.16L4.31 13.16Q2.30 13.16 1.31 12.29L1.31 12.29L1.31 12.29Q0.32 11.42 0.32 9.91L0.32 9.91L0.32 9.91Q0.32 9.44 0.41 8.96L0.41 8.96L3.67 8.41L3.67 8.41Q3.60 8.89 3.60 9.39L3.60 9.39L3.60 9.39Q3.60 10.11 3.83 10.41L3.83 10.41L3.83 10.41Q4.06 10.71 4.52 10.71L4.52 10.71L4.52 10.71Q5.00 10.71 5.22 10.30L5.22 10.30L5.22 10.30Q5.45 9.88 5.45 8.97L5.45 8.97L5.45 3.78L8.71 3.78ZM14.11 6.02L17.33 6.02L17.33 13.02L14.43 13.02L14.36 11.54L14.36 11.54Q14.06 12.35 13.46 12.75L13.46 12.75L13.46 12.75Q12.87 13.16 12.00 13.16L12.00 13.16L12.00 13.16Q10.88 13.16 10.30 12.58L10.30 12.58L10.30 12.58Q9.73 12.00 9.73 10.75L9.73 10.75L9.73 6.02L12.95 6.02L12.95 9.95L12.95 9.95Q12.95 10.42 13.07 10.60L13.07 10.60L13.07 10.60Q13.19 10.78 13.47 10.78L13.47 10.78L13.47 10.78Q14.11 10.78 14.11 9.67L14.11 9.67L14.11 6.02ZM21.67 13.16L21.67 13.16Q20.37 13.16 19.47 12.91L19.47 12.91L19.47 12.91Q18.58 12.67 17.96 12.12L17.96 12.12L19.38 10.42L19.38 10.42Q19.78 10.78 20.31 11.00L20.31 11.00L20.31 11.00Q20.85 11.23 21.43 11.23L21.43 11.23L21.43 11.23Q21.70 11.23 21.88 11.18L21.88 11.18L21.88 11.18Q22.05 11.13 22.05 11.02L22.05 11.02L22.05 11.02Q22.05 10.89 21.81 10.79L21.81 10.79L21.81 10.79Q21.57 10.68 21 10.57L21 10.57L21 10.57Q19.49 10.28 18.80 9.72L18.80 9.72L18.80 9.72Q18.10 9.17 18.10 8.32L18.10 8.32L18.10 8.32Q18.10 7.70 18.52 7.15L18.52 7.15L18.52 7.15Q18.93 6.59 19.78 6.24L19.78 6.24L19.78 6.24Q20.64 5.88 21.90 5.88L21.90 5.88L21.90 5.88Q23.13 5.88 23.96 6.17L23.96 6.17L23.96 6.17Q24.79 6.47 25.27 6.90L25.27 6.90L23.95 8.46L23.95 8.46Q23.31 7.81 22.05 7.81L22.05 7.81L22.05 7.81Q21.67 7.81 21.50 7.88L21.50 7.88L21.50 7.88Q21.34 7.95 21.34 8.06L21.34 8.06L21.34 8.06Q21.34 8.23 22.19 8.34L22.19 8.34L22.19 8.34Q23.80 8.57 24.54 9.12L24.54 9.12L24.54 9.12Q25.28 9.67 25.28 10.64L25.28 10.64L25.28 10.64Q25.28 11.73 24.39 12.45L24.39 12.45L24.39 12.45Q23.49 13.16 21.67 13.16L21.67 13.16ZM31.43 10.86L31.57 12.68L31.57 12.68Q31.22 12.89 30.63 13.03L30.63 13.03L30.63 13.03Q30.03 13.16 29.48 13.16L29.48 13.16L29.48 13.16Q27.97 13.16 27.23 12.58L27.23 12.58L27.23 12.58Q26.49 12.00 26.49 10.67L26.49 10.67L26.49 8.19L25.41 8.19L25.41 6.02L26.49 6.02L26.49 4.54L29.71 3.64L29.71 6.02L31.47 6.02L31.47 8.19L29.71 8.19L29.71 10.16L29.71 10.16Q29.71 10.64 29.91 10.84L29.91 10.84L29.91 10.84Q30.11 11.05 30.55 11.05L30.55 11.05L30.55 11.05Q31.07 11.05 31.43 10.86L31.43 10.86ZM38.05 13.02L36.41 9.95L35.52 9.95L35.52 13.02L32.33 13.02L32.33 3.78L37.34 3.78L37.34 3.78Q39.19 3.78 40.13 4.56L40.13 4.56L40.13 4.56Q41.08 5.33 41.08 6.87L41.08 6.87L41.08 6.87Q41.08 8.90 39.41 9.60L39.41 9.60L41.59 13.02L38.05 13.02ZM35.52 6.10L35.52 7.81L36.68 7.81L36.68 7.81Q37.30 7.81 37.55 7.62L37.55 7.62L37.55 7.62Q37.81 7.43 37.81 6.96L37.81 6.96L37.81 6.96Q37.81 6.50 37.55 6.30L37.55 6.30L37.55 6.30Q37.30 6.10 36.68 6.10L36.68 6.10L35.52 6.10ZM49.38 9.30L49.38 9.30Q49.38 9.83 49.31 10.14L49.31 10.14L44.86 10.14L44.86 10.14Q44.93 10.65 45.15 10.84L45.15 10.84L45.15 10.84Q45.37 11.02 45.82 11.02L45.82 11.02L45.82 11.02Q46.51 11.02 46.66 10.42L46.66 10.42L49.25 11.12L49.25 11.12Q49.01 12.12 48.08 12.64L48.08 12.64L48.08 12.64Q47.15 13.16 45.82 13.16L45.82 13.16L45.82 13.16Q43.83 13.16 42.80 12.22L42.80 12.22L42.80 12.22Q41.78 11.28 41.78 9.52L41.78 9.52L41.78 9.52Q41.78 7.78 42.79 6.83L42.79 6.83L42.79 6.83Q43.81 5.88 45.65 5.88L45.65 5.88L45.65 5.88Q47.46 5.88 48.42 6.80L48.42 6.80L48.42 6.80Q49.38 7.73 49.38 9.30L49.38 9.30ZM45.67 8.01L45.67 8.01Q45.30 8.01 45.11 8.22L45.11 8.22L45.11 8.22Q44.91 8.43 44.86 8.95L44.86 8.95L46.37 8.95L46.37 8.95Q46.33 8.47 46.17 8.24L46.17 8.24L46.17 8.24Q46.00 8.01 45.67 8.01L45.67 8.01ZM57.67 11.30L57.67 11.30Q57.90 11.30 58.02 11.24L58.02 11.24L57.76 12.88L57.76 12.88Q57.29 13.16 56.73 13.16L56.73 13.16L56.73 13.16Q55.87 13.16 55.30 12.86L55.30 12.86L55.30 12.86Q54.73 12.56 54.53 11.98L54.53 11.98L54.53 11.98Q54.21 12.53 53.59 12.84L53.59 12.84L53.59 12.84Q52.96 13.16 52.04 13.16L52.04 13.16L52.04 13.16Q50.95 13.16 50.41 12.73L50.41 12.73L50.41 12.73Q49.88 12.31 49.88 11.49L49.88 11.49L49.88 11.49Q49.88 10.61 50.51 10.09L50.51 10.09L50.51 10.09Q51.14 9.56 52.61 9.24L52.61 9.24L54.00 8.93L54.00 8.65L54.00 8.65Q54.00 8.33 53.84 8.15L53.84 8.15L53.84 8.15Q53.68 7.97 53.37 7.97L53.37 7.97L53.37 7.97Q53.03 7.97 52.84 8.15L52.84 8.15L52.84 8.15Q52.64 8.34 52.63 8.82L52.63 8.82L49.97 8.41L49.97 8.41Q50.08 7.21 50.97 6.54L50.97 6.54L50.97 6.54Q51.87 5.88 53.55 5.88L53.55 5.88L53.55 5.88Q55.41 5.88 56.30 6.59L56.30 6.59L56.30 6.59Q57.19 7.31 57.19 8.76L57.19 8.76L57.19 10.72L57.19 10.72Q57.19 11.30 57.67 11.30L57.67 11.30ZM53.40 11.41L53.40 11.41Q53.66 11.41 53.83 11.23L53.83 11.23L53.83 11.23Q54.00 11.06 54.00 10.72L54.00 10.72L54.00 10.05L53.54 10.19L53.54 10.19Q53.24 10.28 53.07 10.46L53.07 10.46L53.07 10.46Q52.91 10.65 52.91 10.92L52.91 10.92L52.91 10.92Q52.91 11.16 53.05 11.28L53.05 11.28L53.05 11.28Q53.19 11.41 53.40 11.41L53.40 11.41ZM62.82 3.22L66.04 3.22L66.04 13.02L63.14 13.02L63.04 11.63L63.04 11.63Q62.73 12.35 62.17 12.75L62.17 12.75L62.17 12.75Q61.61 13.16 60.83 13.16L60.83 13.16L60.83 13.16Q59.54 13.16 58.85 12.22L58.85 12.22L58.85 12.22Q58.16 11.28 58.16 9.56L58.16 9.56L58.16 9.56Q58.16 7.81 58.86 6.85L58.86 6.85L58.86 6.85Q59.57 5.88 60.84 5.88L60.84 5.88L60.84 5.88Q61.56 5.88 62.05 6.23L62.05 6.23L62.05 6.23Q62.54 6.58 62.82 7.20L62.82 7.20L62.82 3.22ZM62.13 10.91L62.13 10.91Q62.47 10.91 62.64 10.59L62.64 10.59L62.64 10.59Q62.82 10.28 62.82 9.58L62.82 9.58L62.82 9.46L62.82 9.46Q62.82 8.79 62.65 8.47L62.65 8.47L62.65 8.47Q62.48 8.15 62.13 8.15L62.13 8.15L62.13 8.15Q61.77 8.15 61.59 8.44L61.59 8.44L61.59 8.44Q61.40 8.74 61.40 9.52L61.40 9.52L61.40 9.52Q61.40 10.30 61.59 10.61L61.59 10.61L61.59 10.61Q61.77 10.91 62.13 10.91L62.13 10.91ZM79.16 3.78L79.16 13.02L76.31 13.02L76.31 9.81L76.36 6.71L76.31 6.71L74.52 13.02L71.92 13.02L70.15 6.71L70.10 6.71L70.14 9.81L70.14 13.02L67.28 13.02L67.28 3.78L71.85 3.78L72.91 7.88L73.32 9.60L73.35 9.60L73.75 7.88L74.82 3.78L79.16 3.78ZM87.74 9.30L87.74 9.30Q87.74 9.83 87.67 10.14L87.67 10.14L83.22 10.14L83.22 10.14Q83.29 10.65 83.51 10.84L83.51 10.84L83.51 10.84Q83.73 11.02 84.18 11.02L84.18 11.02L84.18 11.02Q84.87 11.02 85.02 10.42L85.02 10.42L87.61 11.12L87.61 11.12Q87.37 12.12 86.44 12.64L86.44 12.64L86.44 12.64Q85.51 13.16 84.18 13.16L84.18 13.16L84.18 13.16Q82.19 13.16 81.17 12.22L81.17 12.22L81.17 12.22Q80.14 11.28 80.14 9.52L80.14 9.52L80.14 9.52Q80.14 7.78 81.15 6.83L81.15 6.83L81.15 6.83Q82.17 5.88 84.01 5.88L84.01 5.88L84.01 5.88Q85.82 5.88 86.78 6.80L86.78 6.80L86.78 6.80Q87.74 7.73 87.74 9.30L87.74 9.30ZM84.03 8.01L84.03 8.01Q83.66 8.01 83.47 8.22L83.47 8.22L83.47 8.22Q83.27 8.43 83.22 8.95L83.22 8.95L84.73 8.95L84.73 8.95Q84.69 8.47 84.53 8.24L84.53 8.24L84.53 8.24Q84.36 8.01 84.03 8.01L84.03 8.01Z"></path></g><!----><!----></svg>